<svg id="icon" height="512" viewBox="0 0 128 128" width="512" xmlns="http://www.w3.org/2000/svg"><path d="m82.693 105.655v-24.496l-6.388-2.369v-18.748h-23.823v18.748l-7.962 2.953v23.912z" fill="#f0c191"/><path d="m82.693 106.655h-38.173a1 1 0 0 1 -1-1v-23.912a1 1 0 0 1 .652-.938l7.309-2.71v-18.053a1 1 0 0 1 1-1h23.824a1 1 0 0 1 1 1v18.058l5.736 2.127a1 1 0 0 1 .652.937v24.5a1 1 0 0 1 -1 .991zm-37.173-2h36.173v-22.8l-5.736-2.127a1 1 0 0 1 -.652-.937v-17.749h-21.824v17.749a1 1 0 0 1 -.652.937l-7.309 2.71z" fill="#2f3a5a"/><path d="m116.712 102.682a15.887 15.887 0 0 0 -10.164-12.382l-27.487-10.2c-.623 1.425-1.268 2.828-1.871 4.207-2.781 6.355-5.869 12.4-10.724 17.431-2.488 2.578-6.217 1.57-8.1-1.043-4.153-5.766-7.13-13.423-9.058-20.264-.063-.224-.126-.462-.189-.69l-28.454 10.559a15.887 15.887 0 0 0 -10.165 12.382l-3.89 24.318h113.99z" fill="#9297ab"/><path d="m121.386 127h-10.638l-3.886-24.315a15.911 15.911 0 0 0 -10.168-12.391l-18.348-6.8c.489-1.112 1-2.234 1.5-3.386l27.486 10.189a15.912 15.912 0 0 1 10.168 12.388z" fill="#84879c"/><path d="m121.39 128h-113.99a1 1 0 0 1 -.987-1.158l3.887-24.318a16.912 16.912 0 0 1 10.8-13.166l28.455-10.55a.986.986 0 0 1 .8.046 1 1 0 0 1 .509.623l.191.69c1.6 5.682 4.446 13.757 8.906 19.947a4.976 4.976 0 0 0 3.584 2.117 3.658 3.658 0 0 0 2.983-1.183c4.872-5.038 7.94-11.215 10.533-17.138.295-.675.6-1.356.908-2.042.321-.716.644-1.437.963-2.165a1 1 0 0 1 1.263-.536l27.488 10.191a16.912 16.912 0 0 1 10.8 13.166l3.891 24.318a1 1 0 0 1 -.984 1.158zm-112.821-2h111.648l-3.7-23.16a14.908 14.908 0 0 0 -9.525-11.607l-26.6-9.864q-.294.662-.589 1.317c-.306.681-.608 1.356-.9 2.026-2.667 6.095-5.836 12.46-10.92 17.725a5.683 5.683 0 0 1 -4.567 1.789 7 7 0 0 1 -5.063-2.943c-4.537-6.3-7.446-14.4-9.11-20.222l-27.443 10.172a14.908 14.908 0 0 0 -9.525 11.607z" fill="#2f3a5a"/><path d="m68.665 119.287 19.907-35.948-12.56-4.657-15.771 28.3a115.525 115.525 0 0 1 8.424 12.305z" fill="#9297ab"/><path d="m68.665 120.287a1 1 0 0 1 -.859-.489 115.081 115.081 0 0 0 -8.351-12.2 1 1 0 0 1 -.088-1.1l15.771-28.3a1 1 0 0 1 1.221-.451l12.561 4.653a1 1 0 0 1 .527 1.422l-19.907 35.949a1 1 0 0 1 -.859.516zm-7.227-13.4a117.118 117.118 0 0 1 7.189 10.4l18.507-33.415-10.666-3.955z" fill="#2f3a5a"/><path d="m52.104 78.977 26.925 48.023h-15.306l-24.179-43.366z" fill="#9297ab"/><path d="m79.028 128h-15.305a1 1 0 0 1 -.873-.513l-24.179-43.366a1 1 0 0 1 .529-1.421l12.561-4.657a1 1 0 0 1 1.22.448l26.919 48.02a1 1 0 0 1 -.872 1.489zm-14.718-2h13.011l-25.671-45.789-10.665 3.955z" fill="#2f3a5a"/><path d="m46.905 29.1q-4.193-2.233-8.538-4.164c-3.26-1.448-6.933-2.783-10.316-1.649a14.893 14.893 0 0 0 -5.432 3.9q-5.319 5.249-10.319 10.801a16.512 16.512 0 0 0 16.017-3.728c-2.756 2.74-5.667 5.794-6.133 9.656-.262 2.182.3 4.367.519 6.554a21.231 21.231 0 0 1 -7.34 18.04c3.3.077 6.365-1.966 8.36-4.6s3.1-5.812 4.184-8.934l3-8.687a12.149 12.149 0 0 1 2.423-4.666c1.759-1.807 4.416-2.329 6.9-2.763" fill="#707583"/><path d="m15.54 69.512c-.066 0-.134 0-.2 0a1 1 0 0 1 -.62-1.765 20.11 20.11 0 0 0 6.988-17.175c-.062-.631-.155-1.261-.247-1.891a18.3 18.3 0 0 1 -.27-4.882 11.922 11.922 0 0 1 2.046-5.212 17.336 17.336 0 0 1 -11.237.355 1 1 0 0 1 -.443-1.623c3.338-3.7 6.822-7.351 10.358-10.84a15.745 15.745 0 0 1 5.818-4.137c3.629-1.215 7.453.09 11.039 1.684 2.908 1.292 5.8 2.7 8.6 4.2a1 1 0 0 1 -.941 1.765c-2.759-1.47-5.61-2.861-8.474-4.133-3.217-1.43-6.606-2.615-9.592-1.615a13.954 13.954 0 0 0 -5.045 3.657c-3.115 3.075-6.191 6.272-9.16 9.524a15.647 15.647 0 0 0 13.467-3.891 1 1 0 0 1 1.395 1.432c-2.845 2.834-5.434 5.659-5.844 9.067a16.586 16.586 0 0 0 .261 4.353c.1.661.194 1.321.259 1.983a22.186 22.186 0 0 1 -5.309 16.557 11.05 11.05 0 0 0 4.537-3.62c1.916-2.529 2.994-5.645 4.036-8.658l3-8.687a12.991 12.991 0 0 1 2.651-5.036c2.054-2.11 5.169-2.654 7.445-3.051a1 1 0 1 1 .343 1.97c-2.6.454-4.874.954-6.354 2.476a11.491 11.491 0 0 0 -2.2 4.295l-3 8.687c-1.094 3.161-2.225 6.429-4.333 9.212a11.664 11.664 0 0 1 -8.974 4.999z" fill="#2f3a5a"/><path d="m92.021 18.667a26.4 26.4 0 0 0 -13.33-14.294 32.478 32.478 0 0 0 -28.824 0 26.4 26.4 0 0 0 -13.33 14.294c-6.137 15.894.073 45.723 20.55 55.9a16.17 16.17 0 0 0 14.384 0c20.477-10.177 26.687-40.006 20.55-55.9z" fill="#84879c"/><path d="m70.414 75.038a16.07 16.07 0 0 1 -13.327-.473c-20.478-10.178-26.683-40-20.552-55.894a26.416 26.416 0 0 1 13.327-14.3 32.465 32.465 0 0 1 16.931-3.271 31.86 31.86 0 0 0 -6.974 2.509 26.432 26.432 0 0 0 -13.328 14.291c-6.14 15.9.074 45.725 20.543 55.9a15.6 15.6 0 0 0 3.38 1.238z" fill="#707583"/><path d="m64.279 77.248a17.161 17.161 0 0 1 -7.637-1.783c-21.742-10.808-27.06-41.56-21.042-57.158a27.218 27.218 0 0 1 13.822-14.829 33.534 33.534 0 0 1 29.715 0 27.217 27.217 0 0 1 13.816 14.829c6.024 15.6.7 46.35-21.037 57.158a17.161 17.161 0 0 1 -7.637 1.783zm0-75.243a31.362 31.362 0 0 0 -13.966 3.264 25.275 25.275 0 0 0 -12.843 13.758c-5.827 15.093.03 44.689 20.062 54.647a15.237 15.237 0 0 0 13.493 0c20.035-9.958 25.891-39.554 20.063-54.647a25.276 25.276 0 0 0 -12.842-13.758 31.366 31.366 0 0 0 -13.967-3.264z" fill="#2f3a5a"/><path d="m87.724 30.8c-.824-3.395-4.424-5.8-8.534-5.8h-29.822c-4.111 0-7.708 2.41-8.534 5.808a22.337 22.337 0 0 0 -.523 6.587 9.87 9.87 0 0 0 5.173 8.326 13.771 13.771 0 0 0 6.848 1.7h23.894a13.771 13.771 0 0 0 6.848-1.7 9.868 9.868 0 0 0 5.173-8.326 22.337 22.337 0 0 0 -.523-6.595z" fill="#e8c79c"/><g fill="#2f3a5a"><path d="m76.226 48.413h-23.894a14.7 14.7 0 0 1 -7.348-1.831 10.868 10.868 0 0 1 -5.671-9.135 23.434 23.434 0 0 1 .549-6.88c.926-3.808 4.924-6.567 9.506-6.567h29.822c4.581 0 8.58 2.764 9.506 6.572a23.457 23.457 0 0 1 .549 6.88 10.866 10.866 0 0 1 -5.671 9.135 14.7 14.7 0 0 1 -7.348 1.826zm-26.858-22.413c-3.672 0-6.851 2.122-7.562 5.045a21.439 21.439 0 0 0 -.5 6.292 8.837 8.837 0 0 0 4.674 7.518 12.7 12.7 0 0 0 6.348 1.563h23.898a12.7 12.7 0 0 0 6.348-1.563 8.84 8.84 0 0 0 4.675-7.518 21.5 21.5 0 0 0 -.5-6.293c-.708-2.928-3.889-5.044-7.559-5.044z"/><path d="m70.508 38.869a1 1 0 0 1 -.879-1.476c.036-.063 3.551-6.354 11.059-2.735a1 1 0 1 1 -.869 1.8c-5.811-2.8-8.327 1.693-8.43 1.886a1 1 0 0 1 -.881.525z"/><path d="m58.05 38.869a1 1 0 0 1 -.879-.521c-.113-.206-2.679-4.665-8.433-1.889a1 1 0 1 1 -.869-1.8c7.507-3.62 11.025 2.671 11.06 2.735a1 1 0 0 1 -.879 1.476z"/></g></svg>